<svg width="50" height="50" viewBox="0 0 50 50" fill="none" xmlns="http://www.w3.org/2000/svg">
<g id="Layer_x0020_1">
<path id="Vector" d="M25 50C38.8071 50 50 38.8071 50 25C50 11.1929 38.8071 0 25 0C11.1929 0 0 11.1929 0 25C0 38.8071 11.1929 50 25 50Z" fill="#FF1100"/>
<g id="Group">
<path id="Vector_2" fill-rule="evenodd" clip-rule="evenodd" d="M25.1961 40.8847L18.2716 36.5761C18.1447 36.4972 18.0442 36.3823 17.9833 36.2459L14.2779 27.9744C14.1268 27.6369 14.244 27.2398 14.5542 27.0385C15.6566 26.3232 15.7991 23.0747 15.5481 20.9967C15.5444 20.9668 15.5426 20.9366 15.5426 20.9064L15.5426 13.5697C15.5426 13.295 15.693 13.0424 15.934 12.9109L22.9394 9.09871C23.4384 8.8278 24.0477 9.18968 24.0477 9.75756V17.2122L25.604 20.4771L27.16 17.2122V9.75756C27.16 9.18975 27.7696 8.82721 28.2684 9.09871L35.2739 12.9109C35.515 13.0422 35.6653 13.295 35.6653 13.5697V20.9064C35.6653 20.9363 35.6635 20.9668 35.6598 20.9967C35.4086 23.0747 35.5509 26.3232 36.6532 27.0385C36.9634 27.2396 37.0808 27.6369 36.9295 27.9744L33.2242 36.2462C33.1633 36.3824 33.063 36.4975 32.9363 36.5764L26.0004 40.8922C25.7537 41.0444 25.4404 41.0434 25.1961 40.8847ZM25.6042 30.1128L16.6047 23.4055C16.4384 23.2816 16.2039 23.316 16.08 23.4822C15.9562 23.6482 15.9905 23.883 16.1566 24.0068L25.3592 30.8657C25.5027 30.9725 25.6799 30.9917 25.8277 30.8815L35.0509 24.0071C35.217 23.8832 35.2514 23.6485 35.1276 23.4824C35.0039 23.3162 34.7691 23.2821 34.603 23.4058L25.6042 30.1128Z" fill="white"/>
<path id="Vector_3" fill-rule="evenodd" clip-rule="evenodd" d="M14.8599 21.6562H13.767C13.3527 21.6562 13.0172 21.3207 13.0172 20.9063V16.7704C13.0172 16.3563 13.3527 16.0204 13.767 16.0204H14.792L14.792 20.9063C14.792 21.0281 14.7885 20.9684 14.803 21.0876C14.826 21.2758 14.8448 21.4656 14.8599 21.6562Z" fill="white"/>
<path id="Vector_4" fill-rule="evenodd" clip-rule="evenodd" d="M27.9096 14.3175H23.2981C22.8837 14.3175 22.5482 13.982 22.5482 13.5676C22.5482 13.1533 22.8837 12.8177 23.2981 12.8177H27.9096C28.324 12.8177 28.6596 13.1533 28.6596 13.5676C28.6596 13.982 28.324 14.3175 27.9096 14.3175Z" fill="white"/>
<path id="Vector_5" fill-rule="evenodd" clip-rule="evenodd" d="M25.6036 16.0257C25.1894 16.0257 24.8538 15.6901 24.8538 15.2758V11.8591C24.8538 11.4448 25.1894 11.1092 25.6036 11.1092C26.0179 11.1092 26.3534 11.4448 26.3534 11.8591V15.2758C26.3534 15.6901 26.0179 16.0257 25.6036 16.0257Z" fill="white"/>
</g>
</g>
</svg>
