<svg width="50" height="48" viewBox="0 0 50 48" fill="none" xmlns="http://www.w3.org/2000/svg">
<g id="mouse_lvkbtgfongee 3" clip-path="url(#clip0_16_47)">
<g id="Layer_x0020_1">
<path id="Vector" d="M24.9938 47.9881C38.7975 47.9881 49.9876 37.2456 49.9876 23.9941C49.9876 10.7425 38.7975 0 24.9938 0C11.1901 0 0 10.7425 0 23.9941C0 37.2456 11.1901 47.9881 24.9938 47.9881Z" fill="#977272" fill-opacity="0.44"/>
<g id="Group">
<path id="Vector_2" fill-rule="evenodd" clip-rule="evenodd" d="M25.1897 39.2396L18.267 35.1044C18.1402 35.0286 18.0397 34.9183 17.9788 34.7875L14.2743 26.8487C14.1232 26.5249 14.2404 26.1437 14.5505 25.9506C15.6527 25.264 15.7952 22.1463 15.5442 20.1519C15.5405 20.1232 15.5386 20.0942 15.5386 20.0652L15.5387 13.0237C15.5387 12.7601 15.689 12.5176 15.93 12.3914L22.9337 8.7326C23.4325 8.47259 24.0417 8.81991 24.0417 9.36494V16.5196L25.5976 19.6532L27.1532 16.5196V9.36494C27.1532 8.81998 27.7626 8.47202 28.2614 8.7326L35.2651 12.3914C35.5062 12.5174 35.6564 12.7601 35.6564 13.0237V20.0652C35.6564 20.0939 35.6546 20.1232 35.6509 20.1519C35.3997 22.1462 35.5421 25.264 36.6441 25.9506C36.9541 26.1435 37.0715 26.5249 36.9203 26.8487L33.2159 34.7877C33.155 34.9185 33.0548 35.0289 32.928 35.1047L25.9939 39.2468C25.7473 39.3928 25.434 39.3919 25.1897 39.2396ZM25.5977 28.9011L16.6005 22.4637C16.4343 22.3448 16.1998 22.3778 16.076 22.5373C15.9522 22.6967 15.9865 22.922 16.1525 23.0408L25.3529 29.6238C25.4963 29.7262 25.6735 29.7447 25.8212 29.6389L35.0422 23.0411C35.2082 22.9222 35.2427 22.6969 35.1189 22.5375C34.9951 22.378 34.7604 22.3452 34.5944 22.464L25.5977 28.9011Z" fill="white"/>
<path id="Vector_3" fill-rule="evenodd" clip-rule="evenodd" d="M14.8567 20.7848H13.7638C13.3495 20.7848 13.014 20.4627 13.014 20.0651V16.0956C13.014 15.6982 13.3495 15.3758 13.7638 15.3758H14.7888L14.7888 20.0651C14.7888 20.182 14.7853 20.1247 14.7998 20.2391C14.8228 20.4197 14.8416 20.6019 14.8567 20.7848Z" fill="white"/>
<path id="Vector_4" fill-rule="evenodd" clip-rule="evenodd" d="M27.9027 13.7415H23.2923C22.878 13.7415 22.5425 13.4194 22.5425 13.0217C22.5425 12.624 22.878 12.302 23.2923 12.302H27.9027C28.317 12.302 28.6525 12.624 28.6525 13.0217C28.6525 13.4194 28.317 13.7415 27.9027 13.7415Z" fill="white"/>
<path id="Vector_5" fill-rule="evenodd" clip-rule="evenodd" d="M25.5974 15.3809C25.1832 15.3809 24.8476 15.0588 24.8476 14.6611V11.3819C24.8476 10.9843 25.1832 10.6622 25.5974 10.6622C26.0117 10.6622 26.3472 10.9843 26.3472 11.3819V14.6611C26.3472 15.0588 26.0117 15.3809 25.5974 15.3809Z" fill="white"/>
</g>
</g>
</g>
<defs>
<clipPath id="clip0_16_47">
<rect width="50" height="48" fill="white"/>
</clipPath>
</defs>
</svg>
