<svg width="200" height="200" viewBox="0 0 200 200" fill="none" xmlns="http://www.w3.org/2000/svg">
<circle cx="100" cy="100" r="99.5" fill="#977272" fill-opacity="0.44" stroke="white"/>
<path d="M63.3182 73L56.9091 49.7273H57.6818L63.7727 71.8636H63.8636L69.7727 49.7273H70.7727L76.6818 71.8636H76.7727L82.8636 49.7273H83.6364L77.2273 73H76.2273L70.3182 50.8636H70.2273L64.3182 73H63.3182ZM87.7131 73V55.5455H88.4403V73H87.7131ZM88.0767 52.3636C87.8797 52.3636 87.7093 52.2917 87.5653 52.1477C87.4214 52.0038 87.3494 51.8333 87.3494 51.6364C87.3494 51.4394 87.4214 51.2689 87.5653 51.125C87.7093 50.9811 87.8797 50.9091 88.0767 50.9091C88.2737 50.9091 88.4441 50.9811 88.5881 51.125C88.732 51.2689 88.804 51.4394 88.804 51.6364C88.804 51.8333 88.732 52.0038 88.5881 52.1477C88.4441 52.2917 88.2737 52.3636 88.0767 52.3636ZM95.4432 61.2727V73H94.7159V55.5455H95.4432V58.3182H95.5341C95.9432 57.4091 96.6136 56.6818 97.5455 56.1364C98.4848 55.5909 99.5568 55.3182 100.761 55.3182C101.928 55.3182 102.958 55.572 103.852 56.0795C104.746 56.5871 105.447 57.2879 105.955 58.1818C106.462 59.0758 106.716 60.1061 106.716 61.2727V73H105.989V61.2727C105.989 59.7273 105.504 58.4697 104.534 57.5C103.564 56.5303 102.307 56.0455 100.761 56.0455C99.7311 56.0455 98.8144 56.2689 98.0114 56.7159C97.2159 57.1629 96.5871 57.7803 96.125 58.5682C95.6705 59.3561 95.4432 60.2576 95.4432 61.2727ZM119.449 73.3636C117.926 73.3636 116.593 72.9659 115.449 72.1705C114.313 71.375 113.43 70.2955 112.801 68.9318C112.172 67.5682 111.858 66.0303 111.858 64.3182C111.858 62.6061 112.172 61.0682 112.801 59.7045C113.438 58.3409 114.301 57.2614 115.392 56.4659C116.483 55.6705 117.714 55.2727 119.085 55.2727C120.1 55.2727 121.04 55.4886 121.903 55.9205C122.775 56.3523 123.532 56.9508 124.176 57.7159C124.82 58.4811 125.32 59.3636 125.676 60.3636C126.04 61.3561 126.222 62.4167 126.222 63.5455V64.2727H112.222V63.5455H125.494C125.494 62.1439 125.206 60.875 124.631 59.7386C124.055 58.5947 123.282 57.6856 122.312 57.0114C121.343 56.3371 120.267 56 119.085 56C117.888 56 116.805 56.3561 115.835 57.0682C114.866 57.7803 114.089 58.75 113.506 59.9773C112.922 61.2045 112.616 62.5909 112.585 64.1364V64.2273C112.585 65.75 112.85 67.1515 113.381 68.4318C113.919 69.7045 114.699 70.7235 115.722 71.4886C116.744 72.2538 117.987 72.6364 119.449 72.6364C120.525 72.6364 121.426 72.447 122.153 72.0682C122.888 71.6894 123.475 71.2538 123.915 70.7614C124.362 70.2689 124.691 69.8485 124.903 69.5L125.494 69.9091C125.237 70.3485 124.85 70.8371 124.335 71.375C123.82 71.9129 123.161 72.3788 122.358 72.7727C121.555 73.1667 120.585 73.3636 119.449 73.3636ZM131.372 73V55.5455H132.099V58.3182H132.19C132.599 57.4091 133.27 56.6818 134.202 56.1364C135.141 55.5909 136.213 55.3182 137.418 55.3182C137.509 55.3182 137.569 55.3182 137.599 55.3182C137.63 55.3182 137.69 55.3182 137.781 55.3182V56.0455C137.69 56.0455 137.63 56.0455 137.599 56.0455C137.569 56.0455 137.509 56.0455 137.418 56.0455C136.387 56.0455 135.471 56.2689 134.668 56.7159C133.872 57.1629 133.243 57.7803 132.781 58.5682C132.327 59.3561 132.099 60.2576 132.099 61.2727V73H131.372ZM76.1364 96C76 95.2045 75.7197 94.4053 75.2955 93.6023C74.8788 92.7917 74.322 92.0492 73.625 91.375C72.9356 90.7008 72.1174 90.1591 71.1705 89.75C70.2235 89.3409 69.1515 89.1364 67.9545 89.1364C66.1742 89.1364 64.6136 89.6061 63.2727 90.5455C61.9394 91.4773 60.9015 92.7879 60.1591 94.4773C59.4167 96.1591 59.0455 98.1212 59.0455 100.364C59.0455 102.576 59.4129 104.527 60.1477 106.216C60.8826 107.905 61.9242 109.223 63.2727 110.17C64.6212 111.117 66.2121 111.591 68.0455 111.591C69.6667 111.591 71.1061 111.208 72.3636 110.443C73.6212 109.67 74.6023 108.564 75.3068 107.125C76.0114 105.678 76.3485 103.939 76.3182 101.909L76.6364 102.182H68.2727V101.455H77.0455V102.182C77.0455 104.303 76.6591 106.121 75.8864 107.636C75.1136 109.144 74.0492 110.303 72.6932 111.114C71.3371 111.917 69.7879 112.318 68.0455 112.318C66.0758 112.318 64.3598 111.818 62.8977 110.818C61.4432 109.811 60.3144 108.409 59.5114 106.614C58.7159 104.818 58.3182 102.735 58.3182 100.364C58.3182 98.5758 58.5455 96.9508 59 95.4886C59.4621 94.0189 60.1174 92.7576 60.9659 91.7045C61.822 90.6439 62.8409 89.8295 64.0227 89.2614C65.2045 88.6932 66.5152 88.4091 67.9545 88.4091C69.3182 88.4091 70.5227 88.6439 71.5682 89.1136C72.6136 89.5833 73.5038 90.2008 74.2386 90.9659C74.9811 91.7235 75.5682 92.5455 76 93.4318C76.4394 94.3106 76.7273 95.1667 76.8636 96H76.1364ZM80.7244 112H79.9517L88.2699 88.7273H89.2699L97.5881 112H96.8153L88.8153 89.6364H88.7244L80.7244 112ZM83.3608 103.409H94.179V104.136H83.3608V103.409ZM102.261 88.7273H102.898L112.398 110.909H112.489L121.989 88.7273H122.625V112H121.898V91H121.807L112.807 112H112.08L103.08 91H102.989V112H102.261V88.7273ZM129.886 112V88.7273H142.295V89.4545H130.614V100H141.614V100.727H130.614V111.273H142.614V112H129.886ZM72.0909 133.545C71.9773 131.955 71.3674 130.648 70.2614 129.625C69.1629 128.602 67.7121 128.091 65.9091 128.091C64.7273 128.091 63.6705 128.318 62.7386 128.773C61.8068 129.227 61.072 129.852 60.5341 130.648C59.9962 131.436 59.7273 132.341 59.7273 133.364C59.7273 133.955 59.8258 134.5 60.0227 135C60.2197 135.5 60.5189 135.958 60.9205 136.375C61.3295 136.784 61.8409 137.155 62.4545 137.489C63.0758 137.814 63.803 138.106 64.6364 138.364L67.2727 139.182C68.2803 139.492 69.1515 139.841 69.8864 140.227C70.6212 140.614 71.2273 141.049 71.7045 141.534C72.1894 142.011 72.5492 142.545 72.7841 143.136C73.0189 143.72 73.1364 144.371 73.1364 145.091C73.1364 146.303 72.8258 147.383 72.2045 148.33C71.5833 149.277 70.7159 150.019 69.6023 150.557C68.4886 151.095 67.197 151.364 65.7273 151.364C64.3106 151.364 63.072 151.117 62.0114 150.625C60.9508 150.125 60.1098 149.439 59.4886 148.568C58.875 147.689 58.5303 146.682 58.4545 145.545H59.1818C59.2576 146.545 59.572 147.428 60.125 148.193C60.678 148.958 61.428 149.557 62.375 149.989C63.3295 150.42 64.447 150.636 65.7273 150.636C67.0606 150.636 68.2273 150.405 69.2273 149.943C70.2348 149.473 71.0152 148.822 71.5682 147.989C72.1288 147.155 72.4091 146.189 72.4091 145.091C72.4091 144.258 72.2273 143.527 71.8636 142.898C71.5 142.261 70.928 141.701 70.1477 141.216C69.3674 140.731 68.3485 140.295 67.0909 139.909L64.4545 139.091C62.6288 138.515 61.2614 137.754 60.3523 136.807C59.4508 135.86 59 134.712 59 133.364C59 132.22 59.2992 131.197 59.8977 130.295C60.4962 129.386 61.3144 128.67 62.3523 128.148C63.3977 127.625 64.5833 127.364 65.9091 127.364C67.2424 127.364 68.4129 127.629 69.4205 128.159C70.428 128.689 71.2273 129.42 71.8182 130.352C72.4091 131.284 72.7424 132.348 72.8182 133.545H72.0909ZM79.2301 151V127.727H86.0483C87.3513 127.727 88.5028 128.019 89.5028 128.602C90.5104 129.186 91.2983 129.989 91.8665 131.011C92.4422 132.034 92.7301 133.212 92.7301 134.545C92.7301 135.864 92.4422 137.034 91.8665 138.057C91.2983 139.072 90.5104 139.871 89.5028 140.455C88.5028 141.03 87.3513 141.318 86.0483 141.318H79.5938V140.591H86.0483C87.215 140.591 88.2453 140.333 89.1392 139.818C90.0331 139.303 90.7339 138.591 91.2415 137.682C91.7491 136.773 92.0028 135.727 92.0028 134.545C92.0028 133.356 91.7491 132.303 91.2415 131.386C90.7339 130.47 90.0331 129.754 89.1392 129.239C88.2453 128.716 87.215 128.455 86.0483 128.455H79.9574V151H79.2301ZM116.591 139.364C116.591 141.735 116.186 143.818 115.375 145.614C114.564 147.409 113.436 148.811 111.989 149.818C110.542 150.818 108.864 151.318 106.955 151.318C105.038 151.318 103.356 150.814 101.909 149.807C100.462 148.799 99.3333 147.398 98.5227 145.602C97.7197 143.807 97.3182 141.727 97.3182 139.364C97.3182 136.992 97.7235 134.913 98.5341 133.125C99.3447 131.33 100.473 129.928 101.92 128.92C103.367 127.913 105.045 127.409 106.955 127.409C108.864 127.409 110.542 127.913 111.989 128.92C113.436 129.92 114.564 131.318 115.375 133.114C116.186 134.909 116.591 136.992 116.591 139.364ZM115.864 139.364C115.864 137.136 115.489 135.182 114.739 133.5C113.989 131.811 112.943 130.496 111.602 129.557C110.269 128.61 108.72 128.136 106.955 128.136C105.197 128.136 103.648 128.606 102.307 129.545C100.973 130.477 99.928 131.788 99.1705 133.477C98.4205 135.159 98.0455 137.121 98.0455 139.364C98.0455 141.576 98.4167 143.527 99.1591 145.216C99.9015 146.898 100.939 148.216 102.273 149.17C103.614 150.117 105.174 150.591 106.955 150.591C108.72 150.591 110.273 150.121 111.614 149.182C112.955 148.235 114 146.92 114.75 145.239C115.5 143.549 115.871 141.591 115.864 139.364ZM122.543 151V127.727H129.361C130.664 127.727 131.815 128.004 132.815 128.557C133.823 129.11 134.611 129.883 135.179 130.875C135.755 131.867 136.043 133.03 136.043 134.364C136.043 135.682 135.755 136.837 135.179 137.83C134.611 138.814 133.823 139.583 132.815 140.136C131.815 140.682 130.664 140.955 129.361 140.955H122.906V140.227H129.361C130.527 140.227 131.558 139.985 132.452 139.5C133.346 139.015 134.046 138.333 134.554 137.455C135.062 136.576 135.315 135.545 135.315 134.364C135.315 133.174 135.062 132.136 134.554 131.25C134.046 130.364 133.346 129.678 132.452 129.193C131.558 128.701 130.527 128.455 129.361 128.455H123.27V151H122.543ZM131.406 140.409L137.134 151H136.315L130.588 140.409H131.406ZM140.548 128.455V127.727H156.276V128.455H148.776V151H148.048V128.455H140.548Z" fill="white"/>
</svg>
